<mxfile host="65bd71144e">
    <diagram id="HIP3nbAZw_EuaXWnEj3U" name="Page-1">
        <mxGraphModel dx="772" dy="1446" grid="1" gridSize="10" guides="1" tooltips="1" connect="1" arrows="1" fold="1" page="1" pageScale="1" pageWidth="850" pageHeight="1100" math="0" shadow="0">
            <root>
                <mxCell id="0"/>
                <mxCell id="1" parent="0"/>
                <mxCell id="8" value="http://ics2o.mths.ca" style="swimlane;whiteSpace=wrap;html=1;" vertex="1" parent="1">
                    <mxGeometry x="50" y="40" width="760" height="480" as="geometry"/>
                </mxCell>
                <mxCell id="10" value="" style="shape=image;verticalLabelPosition=bottom;labelBackgroundColor=default;verticalAlign=top;aspect=fixed;imageAspect=0;image=data:image/jpeg,/9j/4AAQSkZJRgABAQAAAQABAAD/2wCEAAkGBxMTEhUTExMWFhUXGSIaGRgXGCIfIBgfIB0lHh4fGR0fICgiICImHiAfITEmJSkrLi4uIh8zODMtNygtLisBCgoKDg0OGhAQGy0lHyU4Li0tLS0tLS0tLS0tLS8tLS0tLS04LS0tLS0tLS0tLS0tLS0tLS0tLS0tLS0tLS0tLf/AABEIAOEA4QMBIgACEQEDEQH/xAAcAAACAgMBAQAAAAAAAAAAAAAABAIDAQUGBwj/xABFEAACAQIEBAMFAwsDBAEEAwABAhEDIQAEEjETIkFRBWFxBiMyQoFSkaEHFDNDU2KTscHR8BVy8WOCkuFzJDaiszQ1VP/EABoBAQACAwEAAAAAAAAAAAAAAAADBAECBQb/xAAwEQACAQEGBAYCAQUBAAAAAAAAAQIDBBITFDFRETKRoSEzQVKBsWFx8CMkNELxIv/aAAwDAQACEQMRAD8A9xwYMeZewH5Sqmc8RzOSrLSUKX4BQEFgjkENLGSV5rAfC2APTcGPLvAfym1Mz4xXySrS/N0FQU2g62amLknVpIJDEW2jG09gfbPMZ3wuvnKq0hVpmoFCKwXkQMJBYnc3uMAd7gx5Flvym5xst4ZWKUNWbzLUqg0tAUVAoKc9jBO849A9rqviC00/09KD1NXMK86QsHaGF5j8cAb3BjyX2D9ufF8+jZk0soMrTLrUKhw4ZaesQDUMiSv44Xq/lPzx8MymaSnl+NmMw1Egq+gASBA1yDO9zgD2LBjzLw327z9LPnw/xChQWq9JqlKpQLaTpRm5gzEwdDDoZG0GcdB+TD2lreIZFczXVFcuyxTBAhTAsST+OAOtwY828E/KS2rxds2EWjkKuhOGp1OC9RADLEFiUUDYST021mS9rvaLNp+dZXIZdcub01qHmcepqIT6woIiJwB65gxx3t97W1fD/D1rFEOacoi07spqNdgIhiAA0G08vfFfsf7WV/EPC2zFFKX54upDTMhBUU2BvIBUqd7TE2wB2uDHjuS9tPH6udrZFKGQ49BQ7g64g6djxL/EMb7w78obLX8VGaFNaGQI0lFIZpZgAZaCxICja5wB6Jgx5Dl/bTx+vROeoZCgMrBZabEmo6DcjmBbYxCiegPW/wBofyssPCqOfydOnrevwalOqCwptoZiJUrOykHsdgbAD1fBjzjxz8pJ/wBGXxLKCmXLKjo8sEYmHUwVNuhtIIMXx3Q8QVMt+cVWCqtPiOeigLqY4AdwY8jyXtz414gWreG5GkuVUkK1c8zkf96i/YAgGRqONvV9sc/SzXheWzFGhTfNqxrqNR0EGwQ6oFokHVBm53wB6LgxxPi3tbXp+OZTw5Vp8GtRNRmIOsECqeU6oj3a7g9caX8pn5T6nh+cpZejTSoqqKmYJBJVWYABSGAVo6sCOZMAeoYMcL+VL20q5DI0c1lRSqcWqqguCVKNTdwRpZT8o67YQ8E9ts/T8Tp+HeJUcuGrJrpvly0CzHm1MZB0EdIPcHAHpODHj2f9s/H6OboZJ6GQ41cEoBriBMyeJbY49T8EauaFM5oItfT7wU/hB/dkkx9cAPYMGDAEarhQWOwE/dj5f8Lydaj4Uni1E6a9HOvLj7FSmiS3o8j/ALzj6hIxUuVphdARQp+XSI+7bAHg3gXs7+Y+J+CqRD1cs/En7brVJB8xxAv/AGjFPsT7aUPDvC87kM0HTNBqoWnpPMWQKATssMDM9LicfQL0EJDFVLDYkCR6Hpimv4bRdg70abONmZASPQkTgD55zaHK+G+BPXBQLmXqmQZCcRWBje68w8iMe5ey/thk/EOJ+aVTU4WnXKMsap0/EBPwnbG5r5ZHjWitG2oAx6TjFDKok6EVZ30qBPrGAPI/yF//ANJnP/mq/wD6KeOIenq8D8MXUV1Z5hqUwVkkSD3G+PpSllkUFVRVU7gAAHpcDEPzGlAXhpAMgaRAPcCN8AcV4d+TqhlGrZx6+YzWY4TKtTMPqKDSQdNpmJEkm0xEnHJ/kX9ucjl8lSydWsVrvWIVOG5kuwC8wXTc+ePaCJscLL4dRBBFKmCNoQW/DAHgeV8Aq50e0dGiJqjNK6r9vTWrEr6kTHnGOr9l/wAsGRo5OnSzK1aNeggpNSFMnUUGnk6CY2bTBkdJPq9LLopJVVUtckACfXvucU1vDaLuHejTZxszICR9SJwB4x7Z+J5jxTxagvhyU8wuSprXAcwjM2lwWOpZgGmNMzIbpOGPycZnNZDxitlc7TSic+prKlNpQOCx5OYwCA4ieijtj2Snl0UllRQW3IABPqeuCpl0YhmRSw2JAJHoemAPMPZX/wC6fE//AIF/lRxy7+C1M5W9o6FETULoyj7RSqz6fUgEDzjHvC5dAxcKoY7sAJPqd8FPLopLKqgtuQACfU9cAeRezP5XcllvDqdGstRczl6QpGjoPMyDSOaIExeYIM2PXgvF/Aq2V9nqTVlKNWzwqKpsQvBYAkdCYJ9NOPpSp4dRZxUalTNQbOUBYejROLq+XRxDqrDeGAP88AfPf5ZPBKvh7VhRH/0WecOVi1Ksp1EL0EgkjuJEcgx7L414U2a8KfLoQHq5bSpO2rRaT2mAfLG/rUFcQ6qw7MAR+OJgRYYA8Y/J5+UfLeH5UeH59KmXrZYspHDJDSxbZbg36iDYgmbUe3Nah4rn/B2p1Ki0cwrwyEK6w0ETcBgwIO/XHs2b8Po1SDUpU3I2LoGj0kWxYcshKnQsr8Jgcvp2wB4d/odHwv2jya8es9MZapWd8w4YqBTrzcKIUBZ+/Gp8J8O8U8R/Ps5RylCrTz+qnqrsAyIG5RS51+EhLkG9Nexn6Gq5SmxlkVjESVBMdpPS5+84nSpKo0qoUDYAQPuGAPmn2g8Zer7P08rWtXyWdWi6k3C8Oron0hk/7MdX7L5VfDfHCniTVK1SosZPOVnLWMjSZJhiDo8jbZwceyvkKRmaSGTJlBc9zbe5+/E6+VR41orRtqUGPScAeZ+2X/3J4V/8b/yfHqWK2y6FgxVSw2YgSPQ4swAYMGDACFamDUfUJimpEgmLvsBfoNt8aXMMWy9Go9Hg1GfnpzdeV+Um0xAuLHcWjF3jlRhXMMw92vwsR8z9jjUZeua4olzUAYzpaoZHI1jDRI8jiSMH4M0lL0IVKje9BBAVZVgxvIM+hBHSenpjnHz9UNTAaoQ0ydTcsCZJmN7Y62vk0iosONKzPEe8g/vdIxyjUUBRb83/AFG6CbCb4tUorxK85G1yNd+E7SzMCYksegtAv9BhgVGJpzqWUJK6jY8u/pJGIeF5VBRqNDWYm9VgPhG5m3rhr8zRmpmHE02MF3kSU35sc6p5j/bOlNf23H8I19TM1DTqkh0KtC8x5haGEHrJwg2cq8QLqfSQTOprH1mP6422YoI9Kry1F0tp5mcTEXAJ2M2xrGopxAkNcTPEb7on8dtu+ByHJmwXM1Fy+tVao8m0kkjWR+AxfXYioRqaNI+Y9288ZoUUp5YPpdoY2FRxvUI+1/z9cXZnw9OKfi+Bf1j92/exta/Cg3+vsuWLxrRX7+jX0K1QqhYkEtsCRabSCbSIkYZp13NVkKsECgh5Nydx2/zzxCllFYISrAlxbiObTYzI3F9uuHKdFDVanpflUHVxHvPSJ/Hrfscc6lJtM7EoLjoa1szUWnRKqzliitzGwIux9N74Zeq4WsyAuyrKqWNzpmLTufLGFoolKhyu2vQlqj2kb79MNplEUVW0u2kTAqPeFmPix3pRXAqzXgLUKzsRqVkiqyi55lCEg/f9LSMTo1ahcq1OF54YMx2Kheg+IEn1BHSTfTy6OV5XEVSv6R7xTbz+h7EEYuTLoWK6Kg+K/Ff5SP3uuqfpilV8JGsV4HN5jPVkRCqs8pM6mJ1SoAIANjJJPSNjiGfzVRTU0M5IIhdbD5Rt+OHHRKdNDpY8gMmqwE8ojfc6rdLdNwvnsqitUMOYItrb7I/exFF+JpbFwp9A8GzVR3XWXF2EFmuBsYPlfDRzdUiqGpsgVHIcMbkMwEbH4QrT5+V6fAsuj1FMMPiH6RulpBn/ADbGxrojLWXRVUrTYyXeDBZYBmDsD9fXFuC/8nMjJ8TXZrN1VcBVYoSvMGYm5Ia2wiFMk9T2ANzZiotLUitUbWwjWZjUdt/IdLekYnmkVGVdDkEqJ4rW1Ej7UmIH3+uLkoIlIvpqNDtZajT8Z/exxqM22ejnBFVGs7cMnUpKElSSLyu/UfW98VZTMVWUGoChmnaW3OkuJO4BOmYGxth2llUc02hxqpsY4jHqmx1X9euK6VBXAJR1Gqn+tcm5UkG42kbT+GO3Z1xpJ/sryigfM1BWVOETTJ+MM1hpm9oHNbft3gQzOYqJSRkQ1CZm7EjlJFhvcRuLwOsh+oqLWWloqcx+LivAtP2u9vvOwxB6SU6KNpdu/vXAFiZNyYt0B/oYq3hwIYo1+fzDrqYB5FJW0Ak35rAA3PT6Yv8AZXN1Xr0+IrJ7xljUSGApsZvEifLpjOfoUwWeHHulaGqOIu1jcn8Diz2cCtXpMFZSKjLBdm/VN5x18/XFdPxJZRVw7rBgwYmKZw/ttmHXMDSxX3QmADPM3cHHOZTxWq5pOKrQSSOVPst+7B9djjqfa/JcTMDmiKS9JnmfzxoMn4YrGkUqcpYxyR8rdCRGLEK1OKSkaOz1ZeMSVXxasRUXiNyrflpwZE9F/nHTvhN30lFNRpewHL0En5cbat4WvvVFTmVZbkixBi832OJt4eqsiGrDPOkaN4F+vniRWqktDV2Ks/8AoeGkpRdzUqQrGyhSTYbcuG9BZqbCq8MjEWTqU/dxDL0zSSrLrpVryhPyr+9iyXZ6bB1IKMQdBuCUj5sc6bUqja3L1aLjZuD9EhStV4lKrpqVORihkJuCNuXa+NVVr6XCF6kmLwkcxIHTuPx9Y22ZrF6bhXGwJ90w3Pme4P3Y1dStDBS66pEe7PWYvqjoR/zjJxGbvJOadFCalSCX24YiC7XLKALKev4XGaqsW1a6l6amCEm5YwRp3xjKVilBS7rpl/1ZOxdjMN2B39OuCqzFtSupU0lIimduYiBqnbpje2f47+PtF2w+fH5+mK5auKsFKr8rqDITeA32fOPUHDq5n3vC4lXVO8JFgG309QfwOFqNUvpKusa1/VkbgMN27EYcTMTU0a11ibcI9IJvq8x6/THNo8p256iT5rg0UZnqkaAeUIfsiLr5/gcPICnFY1HIWDbh3t5qB+OFFrlKVPUwjQDakW2UE7N2w4mpeKWZdIgn3ZNo7aseglylSegUavFKFalQRUK8wSf0bHop6Eb37gHFlHMa3ZA9WRqv7ojlMdATue3RhYgjEKdUuaZR1gVCP0ZF+Gx6teQQZ88TpVgXKKyBxqn3JG0ar6r/ABKfqMUa3Max0NK+aFKmhepUA0AyOHaAO4nrvt54X8QlGqMXcwRYaJPKotKgT/m+GWzQpJTNR1EoIPDJ6C06vPC3iBKtVLsukEE8hPyr01YhjqaW7yvlFvgD8SojLUqAHVuEnb/bh+pnBUSqgeqCKbG4pwdxYqCD0NuhHfCPgVQvUUo6xzfId+ttWNlVraqVQI6/o32pEAgSpg6oN59dxOLlPkOTDUUzObCVFpmpUliACBTi5jtNvTracX06nDphjUqQajLbh7lyBMqLT/kYrr5jS4VnTUSAPdnqTF9Xef8ADi2nV0Upd0A1sL0yb626ascOhqenmTuxR+JUANNmghJF1N+WPxxRl80Kw5KtSVenIISQS4sYXcdfPFwqElHV10GmxEUztKHbVjCVi6jQ6wHp/qyPmUiOb+XmMd+zeSvkrz9Rhs8BWFA1Kuo9YpxETM6bdriZ+/FdXNijSplqlU6pA0imbgTEFZvsPOB1GGBmve8PiJxJiOGZnSWn4ttIN9um9sVjMaKaa3W6kj3ZNgJb5u39cQ1tEQRFfEKmlmqGq+kUlaYTaXP2cW+AVxUr0mDuQKjLDaLxSa/KPPviPiNRldnZ1AFNSfdn7T9NW+J+BV9dekVYFQ7AwhW/DY9T574rLUmlyM7XBgwYnKJyntNq49tP6Nd/9z40uTJmlw+Hp1GNIMfC09e842XthmCuYA0gzSX5o+Z/I40GRzgThLTproDGIqE/K3XTiNpcSGVpqQfBP6N3WJirHC1aeaAZ2OnVftMTiTvzU9XC130SDO19P0xrqmeA4pWmmorzw97AxI09jiVTPiUZqa6l+EmoREwPs3mw+7GLqNc5W93ZDmtveazT0lwOYGDKqAN+ptgSozOhUpGhgIB6MoiJtG0YTXxAnXNMRrB+Mi4Cx8vcDEKHiEGmERdIRo94TaV6lTOHBGs7VVnG7J/RbXZSlU0zSJgFio3naSDe2NZVcawGNPVaJUz5R9/4jvhipm001DTRJeJIqE9bH4f+Y8sKug1yQmuR+tPqBEeUxHSemMldm/yJ9yoqGnBLDmUx8TC94FjH1jriOaUkke7NM0ltpOkrzWjtHTBlF1UU4i04BeNVUgG7TI0weWd5tOMZlSCV0oE4Si1UiF5hZtMi3Wcb2zyH8faLth8+Pz9MqoVNWnhmmRrWdIPYR17R/gw3RC8Tl4OvUbhDMkS1+5F/O/Y4SyyaY4a07usxVJv/AOJ6Yep0oqagqcQz+uY9BPLpjbT0tbHNo8rO3PUUV1VKTVDSBCDSWUyNrA+sW8vLDyyBVNQ0tAALagYAAkkydhhFqAejT4qU4CCJqsBsL/CBPnhwKWFUVEp6DGrVUIG3fRj0EuUqT0LEF04fCA4hnSpHNoaZv/lsTpKoc6OBxOadK81iNU3ncrPqMV01KlOGlOOIZiqTfQwI+G0REdIjEqFFFdmSnRFQzOmqZ3GqRo7gfX1xRrcxrHQ076RTTi8H4BGtZtbv0kj7xhbxGdVTiaCsiZUkbLFvWMMPRVkTipSnQBeqQYt+6Osff54X8RBLVA6ppJEzUI+VeukYhjqaW7yvlF/gk8VdGiObYEX69cPMU4dXhcEE02J0IRI5v6yfrPXCHgeoVFCKhHN+sJv1vpPXDzUkFOsaS0iTTaSKxY7G55T1ET+6B0tcp8hyYalNcrrAfg65ESt9+W/qMXUh7sCpwiDUYKHWZbW0RJ3tiivTU1AWWnxLR70g72tp7/fbti5KWumBVSmRxGI1VCL6m/dv1tjh0NT08yyfgKmlwzTYiBy6eQ94iMQpVAQBTNKzU5CqREspH4YkVPIoSmafCYAcQkFeTro2jFdCkFE0lp3emWiqWnmBE8p3BmeszfHfs3kr5K8/UfIXi3FHiyLlDMwQCG9JEz3GK9YWnTNXhbHSWQmLXAPSR064uN6gOmnrDTHGbcrF103OgdRtPc4qF6SCotOIMTVK7XJHLuImRcYhraIgiUeJE63LmmV4azIJES/niXgEcalo4eniNOgRfht/6xXn0JcoUTSaaCOIQI1MBB0/5bE/Z8KK1IIE06yTpqFt6TR02gd8VlqTS5GdvgwYMTlE4r2yoO2YGlS3ulmCB8z9yMc9k/C6iGkgptAJAlk+yx+1A9LAC2Os9pa6rXIOq9NfhUn5n7AxjS+GVUpCikuQpNzTb7LeXnGM/wBL/aS6ladGcm2ovoyqr4VUUVH4TSy35k6LH2u39MFbwao8E0mkCLMmx3HxdRb6nGyepSXj1Aak1FuCjQNKwI5cSzTUqmknXIEfomMiQfs223Hc4caPuXVGmXqe19GatfDKjFwaRPOD8SbgKR82I0vC6iMiCm0BGjmT7S/vR9Nsbc5mm/EB1/pFa1NvlCEfL3GK8lVp0uHTXWQqOBNNurKe2HGj7l1Qy9T2vozU/wCjVKasRTckxJLJ3F7Hc9cXVPBahcOabyCCOZLR2vInre/pbDdFadJWhqhkII4RAGlieUBbSWJjadgNsW1kpNVFWak8thSb5TI+XfpO8EjY2caPuXVDL1Pa+jDL5cvRVGp1OVm+Epvrb97v/hBIOKxIbQKdQAU1UXSYBYfaxCvwq1PSxqDncyKbTdmFjptYx9/qMVKiTw1NSBSVZCMD8wn4d/piK11IOi0mnp6/kt2KlONZNppePp+CrLURS0haTxqXqnS3Rvx3/DDlHKKtQ1BSqyzajLKQSRE3e0AkQLX8hCOTprSCgazzrfhkGwAvCwTbthqjlEWtxpqkkkwUMDUAIELtCjeTYX3mhR5WdaepSMotWnTLUqkhAAQy9QOheOgvE2HbD1OX4qmk8GPsHp5sR98411TKpWp05NVSKemVQ7MondSIt2/9vtpqiqhFSG0zCN69tv6Y9BLlKs9CynT4ZpqtKpHEJuyE/o2Avr6AAX7dTidDKBHaotKpLTN6cXMnZu/4kkyTOKsuiUuGo4hmoWvTP7Nh0UdpPcycYymRp06jVRxSW1WKNHMdRjl7/wBMUa3Max0NX+aCoqFqdSdAFim0f7vM/f3AhbxJeI1RWpvBI6r0CkfN3GGalBKtNJVpCAXpE76Sdx5RI2kxfC/iDK7VFZWIJEgobjSttsQx1NLd5Xyi7wQaKigU3jmO6dv9wGNpmqOlKrClUk033KbkSx+LcwJ9PWdT7PBaToo1kcxujdb9sPLk0o0quk1jNNhDIYHxNblncnr19IuU+Q5MdTGYpa2DGlUkEEXS2mYjmtuZjGVy4rUwr0qhAqM1im+ph9rzwvmcoj1RVPEBEW0GLGfs/wDF++LnoJWpBW4giozSqNPxMN488cOhqenqaF7gyqcOpHDcG6SZKybNviujlhSHLSqXenMlOjjsw/yBsABl0SFow+nhMn6NtuUdsVJlkR9Y1kll/VHrUUm4W+w3m8nqZ71n8lfJWn6myGTHFNbhVdRj5kiw7avr64qOVFVKeulU5QYg04v3BYg7AwRFsV1vDKTOH96CG1QKZ31l/szuf+b4upojrTYioCANqbdHVx8vdfxOIq2iIYi2fTU5RqTkBE3KzZmIvr8vXE/AcsEzFOEcanJJYrvw37HqSemF61FAeH7whVQgshm1R2E8o9MWezmVWnmKenVLNeUKi1J/IDrt90YrLUmlyHd4MGDE5ROQ9q3AzAmf0a7A/aftjRZIhOCpZmINyQxk6Gk3k7/djofaasq17sqk01iSB8z98aXw3MQKIq1qbOCdTBhB5W9PLpihWpKU2/5odCjPhBfz1L6zKBVaW5l2hoAC9tt5v6dsRzK69JWoyREjS0GGVukdiPQ9rFh8wAa5atTKMo0LqHLCnV959cGcrFtBp5imoG4LC9x9e/rtaZxFgLcmxBZ21awGK+8B+Ftgq2tG+JUnCsiyxhGEkNJuu83xfUzIOvRVpg8QGS4FtKztM+n/AAc5fMqDTD1kZgjywYX5l/phgIYhraFE0w5aqz6tNtLQsG8STvP8t8X1qRNUOKjAAjl0NFpnrF57dut8WUqxVW4lamfhiKk/NPUDoQPOJ9LatZjV1DMU+Hy8uoAiJ1d5nbp0O63zg/kxfE3BdeVykO5+BiDJYCYKm0zv/fFtNoLKGaeGo1aSTPMJ2+uJ1q5ZIpV6aHXUmWF5LAX6XIO3QehsTMCGU1k18FRqDgc3MJB9b7fTGMBbmb4pkk4YAaozy63Ktbp1k7+eG6FOKxqGuxUknRpMX8/82ERivLViqgVa9NjrUiH2Fu//AL79bWZaswqlmzFI05YhdQmDGn7gIj1MmbSRjdRq3xFalPiU6ems1P3cQFbcgXsRcf51nZLVVxVXURqAEgNa24jCDVdVKnorIpFMD9JFyF3idhJ23ja+HGzIZaoSsisYglwOne/THdlylaehOi6oUBctNUkSGsOG1rz6/U2GLaIRXL62M6rQ0cxnbawAH/keuKcvmAvD4lamx4hMhxtw29IvJjpMTbGMpVcVWZ8zTamdWlQ4tJlenQW3xRrcxrHQ1FRC60ytZkimBAVjMgXsRhfxVhUNVVdkJIhgDIspxfXd2SnwsxTSEEywvt/n0gRJOKfEq4Zn0VVUz9oX5APPrB+mIY6mlu8r5Q14LWVaqgsT8ZuD1JMfSYwytHhpVLV3qA0mADK1tzPX0wh7P1tNQcSshmYIYco0gdd7gmT3+g2OZqsEbVmEYBG1c4v7oLAAFxrDNcyLd4xcp8hyoaiedoayStdlkzsxiwEC4ESJiOvrLlIq9OBUZTNQSA3VmE2jYwf+cKZx2JOiugBMiagECFEWU2kMZ3EjzwyteafJWQHU+7gAyxvIBNt7f+xxKPHiemnwMvF1NQyy1IYBxpkrEXm3kfunGGUCoKnFcqSo0ENEmsGm/YW9PuxEVTdWzCaytTSwYcslY6d/LGFqsKhZq9M0yy6V1gkHiqZ2HSfTbHes/kr5K0/Ubq5YlwwzDqA0xDmZcsQZaIuALWjtAE7OiFarJA6BvtA7AgdCPriNSpU1grmqWnVJBIkjiaonb4OXb8TIya0pT4ddBAuC4E3B6AnvaRP34hraIhiKVgAdHFYkKh1Q3So7RvMRy3Jtiz2cpFcxTmqaktaQwiKTzuTv9PrirMVrxx0D6EltYYfG5IkiSIttP88WezTMMxSD1kclrBWmIpvPQeV+vlistSWXId5gwYMTlI5b2knjmN+Gsf8Ak+NP4aah4PFAD6jIH+142tMRMWmcbb2qpTUcimjuKI0hhuZeBMHc41XhtAM44lBFiqwXlHMoRoP1/pizTnwiieE+CQ5UFT3+qNGnk7/CdU/WN/PBnBW5eFEdZjuO/SJHlvcwMFTLXqBqFIJochgg31EL1+zB2/tgzdAhlFOhTZdMmaY36QZA8ja0g3gjEmIb4gPr59EzxBtFhpWfi8u18SoqwanrMtoadt5TsALbbYK+VCioadGmzcQWKC40rPaPXad7XxnL5VSaZejTDaHkBAPmWLXiReJtOGIMQVoivpfjbSunafi6x12np264urCvxbaeFK7bkX16pFukROw2kkQpUCyvxcvTSNMQi/avcEz+H42tq0GFXSMvSNORzaBP703EdTMHaOoxjEGIVPxtI4UTxHkNsedtzcgdbAk2FpJExxIfbi8FfMa+f0tOI1suVUcKhSbnqTKAxztEC38+kbkYvpZReYmjT18JDp0Czc9o9bb/AFxnEGIUUhV0ji760jbsJ26TP+RNtNavEuSUJJ+WAIEDYNvJm9rGZkRpZSQOLRpAh1EqgAN7xJNuv1jpJMtRY1SrZakKeogMEF1ixJneYtF9XTScMQYhSoraKXDjTwrzG+kafx/mZ2EvEPFXh/HaNu3naY74Qq0WWnR4WXpPNMapQWsPMfd/a7dfKAGoadGmzStiov37Y1c+KMOfFcC3LCr7vjRq4h22jhtt5TMTeIm84MqMzxG4kcPm07Tvy7Cdp9BvJNlMrQLOvFoU1GvlIQDVyPuJPkY6TF4nFnAbUoOXpaSBqIQbyQetrc037dZFOtzCOhrXFfQvCiOGsbbwZmekRt109JwvVFSbxqlddv8ApiY/7sTaiQi6KNM8ix7ub6TMmRGyx6/UKZihcnhU9VtQ0C3uwTAn7Xn/AHxDHU0t3lD/AIEtTirrNyDFhblE7R804czAzOltfwcNtXw78PcEXjVNonczsBqfZ6hqqLxKNNTBtpETH1nvNt46Yfr03KsHy1NV0NJ0r+zmRDW55ERtHbFynyHKhqGdGYk8M9TFl20jud9U+UE9gMMjjcI8HTq1VPi2nUYMx09L22xrs7SdSdFCkwkxyCYhYO466h93Y4YOXIpTSo0mbU9io+2f5X/DHEoanppjTcb5tIqaammLgcy6dwPLEEFfXz/BrEWH7VdO19pF97GxkCngE3NCmHCPpXQIJ5IBv3kTImJtOD83PEhqNLRqWCKYH60AA3O6326471n8lfP2Vp+psXGZ4ndP3QtveHeTcaIFr/0tpJVK09DQsCbCfiE7g/Lq+sYRqU6gqBRlqJT7WgfbIHXqum/QkmItjNWgy004WXpPa8qN5tfpPfpc3iDDW0RDEM4KurccTRTm1jztPpbGPZ0V+PS432rbfs3mY+n9MJ5uid+BT4hVZXhiPje8TyyIO5jDHs4jfnFMvSRIY6SqAE+7eep8rdNr4rLUmlyHd4MGDE5ROV9qRFR3CsxWiCFViuqC5i3f6412TphqiyrrFQi9RrjhkyL+eGfbKuUqs4L8tENCESYLmBNp9SMabIZ3iuCrvy1WSdQuQjTET1MeRBHTEUpeJapx4xRvKlOQ4KOBpe/Fc/CYHbcX+/eJxHNNoZVVHYFQZ11bEtEWBG0ne0X3EoPni2unqcEIxuw2BK7DodxjOZ8S4bKheoSQNiJEsFkjoNzPkeuMXmb3DYVaYTiFVdjxAIDvsVWTadt8GWphzTZldSUeV1vNmUdSDffbrhCtmzTFRi7n3gEAiTKrt3PkMGWzRqGm4dwCj9Z+ZR0F8LzFwZpPxFcNTq040nmeoJlyCBMbAD7/AEJtrORV4YpVSsqNYd4gi53ix/CfTGqpeJ8UOA1UadPxHu3bpti2p4oRV4WqpMgTIvq7ff8Ag/2TheYuDWYY0klKVWpL1LK72h2jYnf++GKVIHU8ODwkbSXeQecxvM9Ma45pqaTraNbzLREMzEm3YHGfzpgHqangUleJE/OY7YXmLg+tEkDWrKQ6i1VzNgTuRsSRPliGWrFqxpmjVVQzDWajwQNj9b9f6ShQz5qqGDVBDqOY7yA1vvj6doOM0PFdVY0tVUEEiSbW7W/4le8YXmLhdXqtSpUtFGrVmmCdNR7QB2Jw81ABmgOeZBHEewNibE7TP340x8SNKnTBNQ8ibEdQbDzGn8R54so546TU1PDaPmFptJJ6YXmLg7l5dk103SCpvUqbtSckAmNj2+sGRidB2ZtJpOBYMeJUtKsTEgAwQonbm7iMa3LeIGqyQziGHzA7038vKb9CMZTxYlgmpwTFi4m4PQdRF/L6ThsXChnKIsI7DQpkPUO4M2UHaBtJvhXMiCW0OSYLKHaR7sG3e9un9MN/nK01RTxTyrdb7qe3+2PqPPCWarATU5yGgxqAj3Ya8/dhHUgt3lF/s/z1ASjqYsC7iZUHrBsbbYfrVyyMrUaqyjXL1IHuy1yfO146d4wh7O1hVqAgvafm35em349IPXDlbxRXVkHFBZH3baE1X/zsdiMXIchyo6lOdrsjECjUYAmCruZACn+pH033hymhWnyKzEs/6xxfUYFp32nphPPeILTYqeJuROoRYKZ9Ob8MMmuKVLUeIRqfZtuc79fuHQ+U8SjqemmAYnn4dQMq1IQ1H5oKxB3vtYHBSLO0Gm6KKgEmo8mKigETaCJO9oHfA+aU+91NCq4u/ZkG/raO+02mNHOLUYIOKDqU3NrVEESLTzXHQg47tn8pfP2Vp+ozWzLrUCfm9Ugn4hUqEAaysn/tAb6/U5NUoEVadR+SSQ9SxkwLAi8d7WmBfGW8RUFf0hBfQCHBFjB/yLmwmZwfni0wiFmJKg/pADdtIEHvePQ7QSIq2iIYiVeoTDmnUVmVAUL1JHO4kxJ2E3H47sezlUvmKZKOkNYszmZpP0YDb8OsYXr5xTFWXAdUABa/xuLd9pwz7OZsVMxTjWNLbMe9J9x5YrLUlfId1gwYMTlI4T28zJp1tWogLRBMLJszmwgk/TGgy2cZnWHblcgyq78Mn7PYjHTe2mXBql2dURaILFlkRLzNxaMaXKeFguoSqlqhDaafzcMkzzbwRhhN+JXnWqRbSbI1fEWYMut50tuqxynSenf8MZr+KNT0gu9x0VY+trQJPoDhyr4apDgVU1aG/VGYUwb6ttX39JxjM+H00K8SqgYgQTRJnmAADao+Ii02scYwXsaZit7mJtnXTWxdo1iYVfsrfbBRzzOyOKjQVfovRlB2EbjD58KjXrqrHEUCaZPMQoWBr3kjBR8Klk0VF06Hj3REQygiCwIvjOC9hmK3uZrR4k1RDDuNjzKo+bY2sRFwcWP4swfh63mQJ0rFxO8eYHqyjri2hkaTq3BqoY0zpokWJ5Z5h06YZq+HIKmk1F12/UN1kKdWqN5G+5jrjGC9hmK3uZrvz96aSXcjU+yp0Zj1HYHElzzc1TiNHDVvhWY5j2w3/p6qoFSsg1O4E0yZhmn5uwO+JjwwczGqugUlb9EY08x21dumGC9hmK3uYiM+1RVZajRqXdV6gMPl7EYj/rXMFNVgS2kSq3MwQLdJH3jDtLJLUUGnWVgHUGKREGxG7diMWLkUm1VZJAkUW3LFRJ1fbDb9fUSwXsMxW9zNfl8+yog1vOhNlX5rC8dx/LBS8Qe763AbT8qzfabeeG6eSVKaa6yjkQn3TGAdpIaAJBudrdxidLw8GW4y6G0QeEbztbVb64YL2GYre5mvp+JNUZId7N1VbSjjt0IIPpjKeM6jpFVibTyry6pjVa234jDlHw5GKcKqnxDakRY020/MJsI8tumJJlKbMFFZC1oHCMglSwiWtyhv8OGC9hmKvuZrv9WNNFl3sikwi2kGOncR6kDEHzdmqNUeCQbKv7MNfl7DD7ZOmipxKyA6Ab0SbaT+92Df4cTTIKFZzWXQSCDwjEcINtqtyzjOE9jWdWpNcJNso8Br8SqCtSpYHos7dtJ/z1E7KtnxUpuq1KplG3VI+AntMbie4jtNfh2WAZWpVFI/+FlsUkH4hNoxnMZqkyuEejxDTYiKLAxouQdVrCPpHSMTRTUeDNYrxKM14gKZKmpVmYsq3IAa3L2O+wgzhinX4aCXqHUzxpCfbPcdSd9vSRinM11BOtqcjeaDHtte/Tbf6YsVgqA1Ch5qkHgM3zEtcMYsJjqAe2OHQ1PTTZkZsNFRalQgK/RATBTaQBBBBE9IxZxtZC66oOtd1TpUUH5fMW6XBgiMRqkEzqplAr6ookiQy6uUNe+IU8wpYU6b0wwZTpFFl/WKCfiHWPXHds/kr5+ytP1HH8TVWCtVqKWbSsinDHUFgEDuQfIT1BAFzYpLTV6tQagADCQSzaQPhmZM+gPY4KeZRXKhqYcRIGXcES0CebbV122OMLmVphOI9NWKgAmi1xq21auhvE2388RVtEQxFc5mIbiF6sFE6JMFnvYQR1tJOLvZ/NipmKUM50sZDBRvTfsJkRijNVwzB9dNkKJpPBYgczgGNUi/XFvs5XR69I02QrN9NMrbhPpuT/xistSaXId1gwYMTlE5H2sraaxkKV4Q1Fm0gCXmbG0Y02RrBXXh06QmoxbQ+7aGBmE3tfG39rqJesV0hlNIA3ixZ8abKZQo66UA1VCx5upRp/lipUr1oyai/otU7NRnFOS1/LHqubB1ladEvoYEh+aJOoE6J+IbdwcZzGaWRxEpatIjVVO09tPckfUjriuvlI1uEGvQw+PoTJt64zXyQcqzoJAge8ixsbee3ntiPM2jfsiTJ0Nu7JvmZ18SnSI4ikansG0qFiU3mAPM4zQzZmnoSno4baYqEiJTY6NsVnKly4ZJAqAjni4VYuMFHLFWRUQadDxzzuyk3+uGZtG/ZDJ2fbuyK5tdLcJKN9M6ak9bE8nXvhirngXAZKWuQQDUMzePk8ifp5YUTICmh4dMAGP1k9ekz/nphitldTAsg1Agjn6iSLfefvwzNo37IZOz7d2QbNAr72nRjW8a6lvjJO6eh+g8sTTOQSNFIUzTRR7zlglgoHJ1kAfTFByetfeIDDuRzxfU23pv9JxbTy7aiugaQiAc/QFovhmbRv2RjJ2fbuyNLOLAFJKMal+Cpbe2yev44s/P0LLy0dWqV97fVJ25bmS33nC65AUyNCCZUH3kmNXnPX+WLTkBrB0DUDMcU76idv8AdJjrHlhmbRv2QydDbuyKZxeHTFRKMhE+KrG4IEjT15h53xYmbHMClLQdMTUseo3S974qpZLXTp6knlT9ZG1xt54lRyZ5k4Y0DTA19ri/rhmbRv2RnJ0Nu7CjmVDJwqdEcwkI/wD020zCWttiS5qmWBFOgX+UipJFjEclrTtiqjkwhThoLt+0n5HI9NyfrgHhyBywprrkE+8vIFren8sMzaN+yMZOht3ZI5xCiiolGdC/FUvEEieT1P8AxiSZwaWDJR4ZIialo4Q25NtIJ9JxUcgHRC6CdKx7yNge3kW/HEkysh0KDTIAl/8Apgb9eXDM2jfshk6G3dk6OcClTTSkFBJMVTHwf7bWjFNfM09DaEoatDAFal/0fTk+wQfQ+eMpkQmlUQAGQYqbcnfcWxjMZIBGZUEqhiKn/TjbY8oH8+uGZr79kMnQ27sxWenzKwo3Nwah3t0077YuTToHFFIXqRqqlbBizfLsIB+k4xmPDVbUWWZJ1TVMSQOk2sB6D1xI5dWSKqWBqfrdI+MybEXHfcX7nEVKLT8SzN8QqadgtEU9L6oeBOpJmF3mMYXTqBprRL6lkrUJMcQC/LtIj6eWJVKIB06IQq+r3nmgPNMgAACJ2tiCZdFYOlMa9Sg+8neos2nuBjt2fyV8/ZXn6jYalqAihqm3vjM6pMcv2iPvGMLohOItHUVAhqhuJIFivckfUjqcWjLp9iTqm9WTMnz7kiPp0AxWMqtRUNSnJAEA1Y+a0CdyevW3YRFW0RDEUzenUOWjw9KFfeGCSzxB03kk+uLvZ8p+cUuGKXxHUUeT+jeJt67+eKc5lVk0+HyaVtxNzrc3PXm6YY8BoquYpFVjUxJPE1T7t4Nyd5nzxWWpNLkO3wYMGJyich7X0w9RqbIWV6IUxGxLg7nGn8NoCk4CpUOuqznUVN2RpA5tsbf2vTVUZOcaqIEoGkSXEgrcH6jGqyShHWznVUZj7t+qN0jsB63PXEis8JLi2W6cuEUNVMsqmpUWnUBKMCJSLkuTGreScTzGXFRlYpVELEDhwRIJmSTeAN9p7nEalFVDvFQnSwk03tqJYidO0x6R54xmssKjI2qqukD4aTXhg0EldpG3reCQc5Snu+qJL5Kqgq61anUgVFaxUXVVInm7ifu6jBllFM06a06kBHFys3ZSdmGMVFD6xFQRUDfo36Kvl/ORtY4nTIVkWKlkYTw3ndP3cMpS3fVC+UUcmtFW0pVuFB1FTZWJEc1viNhb8cW1Mmpqmroq6iQYlI5YjrO4HXp2JBWy2TFFWvUadIvSe0H0Pf8A5xdVyYNbizU3UxwntpEWtHU9OrdYIZSnu+qMXzFbLLWTS9OrAd/hKDdzY83eDHcDfFiqJNM03ICUwJ0TysxB+LeQMVPQFRf1gvUFqb9ak7RuNNuxxmhRA1IdeymVpOPndtothlKe76ozfJGkEOoU6l2FuSBzSYg9z+A7DGG8OUsraKvK+tQOHAOot3mCT36DtiIy4R9YNU6mFjTe3NO8Sew7X7nA3h4NRXmqNLao4T35i0ExeJgep3tDKU931Ri+CZVaiUyadUHQl1ZR8NxcNPU/+jjNPLLpNHhVNChALpICi19VtotiC5YOlJveAhUP6NyOUHpEX1H/ACIsy9IAcOKh06P1b303iI26QZt3wylPd9UL5ihlxSZNKVTLfMU6I+0EdyfwEAAYn+ZICrClUBTaCmw2G+03t59DGK8vl1pMkcQgsBHCYfDTcdrk/wAo7YKOQVXL+8bYgGk9tKldyPOfphlKe76oXzBya1FRilVToW6lOgMbkzcze1hiX5sHVqZSoFVgIHDvFNQJk/W0XAxUMlrCvqqLKr8NJpEDcGCJ6TFgWHWcSGWlSnPyMLtRYzFNRJsI7nvtsThlae76oXyVLKinCqlXmJudEjkItePO4I/liFbIqiswSqSqNElIA0FYgEevrJ6nFq0QgVRrvO9JyB7rRsRtaYnCtbw8KC81OVGGkUnAPJpk79h9y9iSytPd9ULw1mvDVqMWZK0kzvTt5ATEWm84w+X4qiUqjSzxHD3LG/MTcdPU4rznhoqMzEuJJ2o1OsWMWOwM7mw2sZvlxUA1B4DVARwWJMsRYxb7t46gYZSnu+qF8wMoFikqVQCrXlCRdNiT5b79Zm+JnL6GDinU+JRHJF6qsdjPYbwABiDUN0huZXM8B4EsnyxH+SbkzCjkRSfXqqmWUQaTxeqpmSCf+TiaMYwjdRrJoabwdDUFQpXLAzvT+1q6H6ekYn+ZCqEdkqyFKjSUFjveZuLb23EG+Km8OUvr11BzaoFF4+Ke3e/+6+1sWcFagptLCFiOC5nmDbwO1juJJxWraIjiK5rKCeEEqhVVCLoTZ3PUnr9cX+z+UFPMU4WpzNcto6U3vy9TN8LZqiv6PU4hUIYUmtDu3KCLRsJkWvOL/ZzLinmKYDVGlt3RhtSfckAHFZaksuQ7vBgwYnKRyntUw4jrxBTZqICtIBBl4InscarwyqEccSujzVZl5hyqUaF+mNx7TFuI4RgrmiNJPQy8GD541nhj1A44rqffMUiLJwzAPnM/hhi8PAmjHwRdUYBqjnMAoabjQX6liwO/QcvpjOd52RkzKoALgP8AFcG4mLfebjra2pxQ1QtVU0uG/LadRYldgLBOX+++M501iyGlVRVgagSLmQbcp6SN+u1rsZ7G90rrVlfWErqh4gM6h0RbG9x5WnaRiWWzCq1NXrI5CPLagJ5l8z0xbUdjr4bqDxQTJ3XQsjridB4amHcM3DaTI3lNtrdB5YYz2F0SRlRWmurTo3qE3BljDExc9DsB2xKretrGaUJI5Ndrb9YvBEfvEm4WJU+Kofi1VdTo03EgzzTYSJ28oxbV43GlaqcKV5SRMRzdPrv26YYz2MXRV2V15cwqXqCzxvVkGxGwB++NicYybBQUbMBmhTr13PvHaN+1vS2G0ZiOSqFE1LSLniyDcHoGH19CIZZqnMGqLxIUypERxHIAkfY5dp85vhjPYXRXL8hl8wrAsvLxJC8021Gfvk7Dpe0A6wRm006gdJM2DliJ19QY26DpidE1QRxaisNQiGH2yRsq/LA9RiQ4+se9UpqvzCdOonbTBlYB27za7GewuitnSkUzISFSV1wDAMgwZEyJjsMWI66WTjqGGjm1ztveQT9cX5bUVpRV0ropyAV6Altwfi5Rv6QdxS+kgVVFQBJaRBIHN0i99gPphjPYXRXJkUymvMLU5hEvMRTfeT5gWAmJ3OMLSIqBvzsFRHKX3gQZvef536Qb8qaqsnGqo3Py6SLe7eeg8h1uCbTGI0FzOoFqyaZGoSDaLgEIvpPWxgRGGM9hdKhDJK5gJKKBFTb3ZWYmAZINuw6icSVgRp46yrLqbiEFopKNwbyd589jBEm45UcOqqjQumWFjo3I0H5otPc+QsRqumFqJxAy6yWEEiks203BbtFvSMMZ7C6UUG0AK+ZSoxmCWiPdabkNO4mRFyTvip10qxbMhgEaxqkmdEd4I63EzebkYdpmoAuuoGc7cwgHhQb6eryZ0ncW6YVcZkBjUr02TQ+oCJPJbp3/AK4Yz2F0szaai5GZCySViq0Dbcah0DbdwREXhmfeLCZhacNUkipBu56Ax33FjBHUG7OjMlyadamqyYBYeUfJa82/HEq5qlRwairzvqlhcajtKtfz/nhjPYXRdbAo2ZVmZakPrgrLJsZkReN4sLxeKLobU+aV1lBp1WniKdVyd7+kwLYaLVYg1E4pWppYGwlkjcdO0H164jNYEGpUUpqHKGBvxU0xCr0B++OkljPYXSrQdcjNKBqBjWTbWGKwWi4EAjYEqdQ2zOoU2TMqgCiV1Tqhw22oRYETvBIvi7/6jX+lTRq+0JjUDfkg2kbjfESax4RpVUVAvMGIvfpa1vP6DfGs53jKXA1+cM8gzChwqHWHJ+dzuTJHSGJtaeuL/ZtdOYpA1xUJaw1SRFN53P4gDB4gakwtReIFSWJFwGeZ5YuOwH9MT9nBVFekKtRX5raSP2bzaB5d8RLUklyHc4MGDE5SOM9tJ4jFU1uKI0iBc6ngXIH3kY0fhiOWXjU0U8RgNIEFdBg7nrP9sejZnIUqhmpSRzESyAmO0kYq/wBGy3/+ej/DX+2I3DiyeFZRSXA4jh1Pea6ahNDRZZmbbE9L7duuLM1Tq6l4dNCmm5gTPSxi3frE9QJ7Q+EZf9hS/hr/AGxn/Scv+wpfw1/tjGGb5hbHE5ik418JELcQbgbaB/WPpMXxPL0jKa0AbQ8iB9pYmJExGxx2Q8Iy/wCwpfw1/tg/0jL/ALCl/DX+2GGMwtjhcvTqlG41NQeWIA732J/yPPE81TrhjopoV6GF285PePpqO+kY7c+EZf8AYUv4a/2xn/Scv+wpfw1/thhjMLY4hqThfdopu/yiZ4ttyBEapGMZek5nUiippW2kRGtp2MfDtft6Y7ceEZf9hS/hr/bB/pGX/YUv4a/2wwxmFscNSp1SRxaaKNQjSBHxWg77byB8vnGRTr8QDhpo1bgD4dR6TPw/03kx3B8Iy/7Cl/DX+2M/6Tl/2FL+Gv8AbDDGYWxwbU6wp0+EiEaU3A7HVJJ/2/jv0m1OpB001NSVkELAEH4r+k6Sb7WvjuB4RlxYUKX8Nf7YP9Iy/wCwpfw1/thhjMLY4ehTqal4iKOflssnkfeCRMRPnMWg4jQSuSNVIBbTIT67Mdh2+aLROO6PhGX/AGFL+Gv9sH+k5f8AYUv4a/2wwxmFscJorQOHTUrpW5C/YPw37xvHX1xl6dXS2impqSJssA8Nd5O02t/LHdDwjL/sKX8Nf7YB4Rl/2FL+Gv8AbDDGYWxw1JKkA1Ka6rwAFudB2vHbci89IOKWSvpbiU0C6GkgL9jyPf8ArtbHfnwjL/sKX8Nf7YD4RlzY0KX8Nf7YYZjHWxw2bSvqbRTUrNpC7f8Al90+cxbGatOoFHDpg8zzZbcxj4iOv4T5Y7n/AEnL/sKX8Nf7YwPCMv8AsKX8Nf7YYZnMLY4bh1OqLxNL6QAvdPOImYk7RN8YCVSfeU0CysaYN+IsX328v7Y7r/SMv+wpfw1/thWp4Smoxl8uUkRKCRtfa/X/APHzwwxmFscfozHE/RJoneFnfrf/ANx54xUSqAnCpoRpvqC7z6ztM29L46z/AEwiActlj3IQd+x8v5HbEk8KEf8A8bLjsNAgDp067/cO5wwxmFsckEqxamnEhJDACF1vOxidPY/fEF/2eWp+cU+IgXm5YAn9G8zpJvtPTtON+vhIvOXy224QSb+Y7THnHni7KeHhXDcGgsTdEhhaLGPOPT7sZUODNZVk1w4GzwYMGJCuGDBgwAYMGDABgwYMAGDBgwAYMGDABgwYMAGDBgwAYMGDABgwYMAGDBgwAYMGDABgwYMAGDBgwAYMGDABgwYMAf/Z;" vertex="1" parent="8">
                    <mxGeometry x="520" y="90" width="225" height="225" as="geometry"/>
                </mxCell>
                <mxCell id="11" value="Please enter two integers you want multiplied together.&amp;nbsp;" style="text;html=1;align=center;verticalAlign=middle;resizable=0;points=[];autosize=1;strokeColor=none;fillColor=none;" vertex="1" parent="8">
                    <mxGeometry y="90" width="320" height="30" as="geometry"/>
                </mxCell>
                <mxCell id="12" value="Integer 1" style="text;html=1;align=center;verticalAlign=middle;resizable=0;points=[];autosize=1;strokeColor=none;fillColor=none;" vertex="1" parent="8">
                    <mxGeometry x="10" y="130" width="70" height="30" as="geometry"/>
                </mxCell>
                <mxCell id="13" value="Integer 2" style="text;html=1;align=center;verticalAlign=middle;resizable=0;points=[];autosize=1;strokeColor=none;fillColor=none;" vertex="1" parent="8">
                    <mxGeometry x="10" y="187.5" width="70" height="30" as="geometry"/>
                </mxCell>
                <mxCell id="14" value="" style="endArrow=none;html=1;" edge="1" parent="8">
                    <mxGeometry width="50" height="50" relative="1" as="geometry">
                        <mxPoint x="20" y="170" as="sourcePoint"/>
                        <mxPoint x="220" y="170" as="targetPoint"/>
                    </mxGeometry>
                </mxCell>
                <mxCell id="15" value="" style="endArrow=none;html=1;" edge="1" parent="8">
                    <mxGeometry width="50" height="50" relative="1" as="geometry">
                        <mxPoint x="20" y="227.5" as="sourcePoint"/>
                        <mxPoint x="210" y="228" as="targetPoint"/>
                    </mxGeometry>
                </mxCell>
                <mxCell id="16" value="CHECK" style="whiteSpace=wrap;html=1;" vertex="1" parent="8">
                    <mxGeometry x="20" y="260" width="80" height="40" as="geometry"/>
                </mxCell>
                <mxCell id="9" value="Multiplying with While Loop, in JS" style="whiteSpace=wrap;html=1;" vertex="1" parent="1">
                    <mxGeometry x="50" y="-20" width="760" height="60" as="geometry"/>
                </mxCell>
            </root>
        </mxGraphModel>
    </diagram>
</mxfile>